# xmcd
#
# Track frame offsets: 
#        150
#        36125
#        68915
#        91292
#        115707
#        153572
#        173275
#        199492
#        218085
#        229515
#        251809
#        268542
#        279737
#        305362
#
# Disc length: 4336 seconds
#
# Revision: 0
# Processed by: cddbd v1.4PL0 Copyright (c) Steve Scherf et al.
# Submitted via: ExactAudioCopy v0.90b4
#
DISCID=bf10ee0e
DTITLE=Funn Brothers - Double Header
DYEAR=1900
DGENRE=Blues
TTITLE0=Big Boss Man
TTITLE1=Change My Way of Living
TTITLE2=Moon Dance
TTITLE3=House of the Rising Sun
TTITLE4=Hoochie Coochie Man
TTITLE5=Mystery Train
TTITLE6=The Continuing Story of Polk Salad Annie
TTITLE7=Constipation Blues
TTITLE8=Frayser Man
TTITLE9=Germantown Blues
TTITLE10=Shallow End of the Gene Pool
TTITLE11=Proctor and Johnson's
TTITLE12=Hand Jive
TTITLE13=Guitar Man From Hell
EXTD=
EXTT0=
EXTT1=
EXTT2=
EXTT3=
EXTT4=
EXTT5=
EXTT6=
EXTT7=
EXTT8=
EXTT9=
EXTT10=
EXTT11=
EXTT12=
EXTT13=
PLAYORDER=
